<svg width="42" height="34" viewBox="0 0 42 34" fill="none" xmlns="http://www.w3.org/2000/svg">
<path d="M41.8334 9.93337V26.8959C41.8335 28.6253 41.1718 30.2893 39.984 31.5464C38.7963 32.8034 37.1725 33.5584 35.4459 33.6563L35.0625 33.6667H6.93752C5.20807 33.6668 3.54413 33.0051 2.28704 31.8174C1.02995 30.6296 0.275018 29.0059 0.177104 27.2792L0.166687 26.8959V9.93337L20.275 20.4667C20.4987 20.5839 20.7475 20.6451 21 20.6451C21.2526 20.6451 21.5013 20.5839 21.725 20.4667L41.8334 9.93337ZM6.93752 0.333374H35.0625C36.7408 0.333172 38.3594 0.956281 39.6043 2.08185C40.8492 3.20741 41.6317 4.75521 41.8 6.42504L21 17.3209L0.20002 6.42504C0.361527 4.82152 1.08971 3.3282 2.25367 2.21351C3.41762 1.09881 4.94102 0.435847 6.55002 0.343791L6.93752 0.333374H35.0625H6.93752Z" fill="black"/>
</svg>
