<svg width="30" height="30" viewBox="0 0 30 30" fill="none" xmlns="http://www.w3.org/2000/svg">
<path d="M15 10.0533C12.2762 10.0533 10.0533 12.2762 10.0533 15C10.0533 17.7238 12.2762 19.9467 15 19.9467C17.7238 19.9467 19.9467 17.7238 19.9467 15C19.9467 12.2762 17.7238 10.0533 15 10.0533ZM29.8363 15C29.8363 12.9515 29.8549 10.9217 29.7398 8.87693C29.6248 6.50193 29.083 4.39412 27.3463 2.6574C25.6059 0.916973 23.5018 0.378887 21.1268 0.263848C19.0783 0.148809 17.0484 0.167364 15.0037 0.167364C12.9553 0.167364 10.9254 0.148809 8.88066 0.263848C6.50566 0.378887 4.39784 0.920684 2.66113 2.6574C0.920696 4.39783 0.38261 6.50193 0.267571 8.87693C0.152532 10.9254 0.171087 12.9553 0.171087 15C0.171087 17.0447 0.152532 19.0783 0.267571 21.123C0.38261 23.498 0.924407 25.6058 2.66113 27.3426C4.40156 29.083 6.50566 29.6211 8.88066 29.7361C10.9291 29.8512 12.959 29.8326 15.0037 29.8326C17.0521 29.8326 19.082 29.8512 21.1268 29.7361C23.5018 29.6211 25.6096 29.0793 27.3463 27.3426C29.0867 25.6021 29.6248 23.498 29.7398 21.123C29.8586 19.0783 29.8363 17.0484 29.8363 15ZM15 22.6111C10.7881 22.6111 7.38886 19.2119 7.38886 15C7.38886 10.7881 10.7881 7.38885 15 7.38885C19.2119 7.38885 22.6111 10.7881 22.6111 15C22.6111 19.2119 19.2119 22.6111 15 22.6111ZM22.9228 8.85467C21.9394 8.85467 21.1453 8.06053 21.1453 7.07713C21.1453 6.09373 21.9394 5.29959 22.9228 5.29959C23.9062 5.29959 24.7004 6.09373 24.7004 7.07713C24.7007 7.31064 24.6549 7.54192 24.5657 7.75771C24.4764 7.9735 24.3455 8.16957 24.1804 8.33469C24.0153 8.49981 23.8192 8.63073 23.6034 8.71996C23.3876 8.80919 23.1564 8.85496 22.9228 8.85467Z" fill="black"/>
</svg>
