<svg width="31" height="41" viewBox="0 0 31 41" fill="none" xmlns="http://www.w3.org/2000/svg">
<path d="M8.46747 1.16501C9.56143 0.835173 10.7354 0.889969 11.7938 1.32027C12.8523 1.75058 13.7315 2.53043 14.285 3.53001L14.47 3.90251L16.125 7.58C16.6272 8.69622 16.7903 9.93546 16.5938 11.1436C16.3973 12.3517 15.85 13.4755 15.02 14.375L14.6875 14.705L12.08 17.1375C11.61 17.5825 11.9625 19.305 13.6625 22.25C15.1925 24.9 16.4375 26.1375 17.05 26.205H17.1575L17.29 26.18L22.415 24.6125C23.1037 24.4013 23.8388 24.3929 24.5322 24.5884C25.2256 24.7839 25.848 25.1751 26.325 25.715L26.5525 26.0025L29.945 30.7025C30.6098 31.6237 30.9412 32.7439 30.8844 33.8786C30.8276 35.0133 30.386 36.0948 29.6325 36.945L29.3275 37.26L27.9725 38.545C26.7557 39.6973 25.2336 40.476 23.5872 40.7884C21.9408 41.1009 20.2393 40.9339 18.685 40.3075C13.8475 38.3575 9.45247 33.9025 5.45997 26.9875C1.45997 20.055 -0.202528 14.0125 0.539972 8.83751C0.764656 7.27317 1.40882 5.79889 2.40406 4.57124C3.3993 3.3436 4.70845 2.40841 6.19247 1.86501L6.67497 1.70501L8.46747 1.16501Z" fill="black"/>
</svg>
