<svg width="37" height="30" viewBox="0 0 37 30" fill="none" xmlns="http://www.w3.org/2000/svg">
<path d="M36.4347 3.81696C35.1127 4.40279 33.6924 4.79862 32.1993 4.97754C33.7399 4.05571 34.8925 2.60486 35.442 0.895707C33.9946 1.75544 32.4105 2.3606 30.7585 2.68487C29.6476 1.49874 28.1762 0.712557 26.5727 0.448374C24.9692 0.184192 23.3233 0.456794 21.8906 1.22386C20.4579 1.99092 19.3186 3.20953 18.6494 4.69049C17.9803 6.17145 17.8188 7.83189 18.19 9.41404C15.2572 9.26678 12.3881 8.50449 9.76892 7.17664C7.14977 5.84879 4.83908 3.98505 2.98683 1.70637C2.3535 2.79887 1.98933 4.06554 1.98933 5.41454C1.98863 6.62895 2.28768 7.82476 2.85997 8.89587C3.43226 9.96698 4.26009 10.8803 5.27 11.5547C4.09877 11.5174 2.95338 11.201 1.92917 10.6316V10.7266C1.92905 12.4299 2.51822 14.0807 3.5967 15.399C4.67519 16.7173 6.17657 17.6219 7.84608 17.9593C6.75957 18.2533 5.62045 18.2967 4.51475 18.086C4.98579 19.5515 5.90333 20.8331 7.13891 21.7513C8.3745 22.6694 9.86628 23.1782 11.4054 23.2065C8.79265 25.2575 5.5659 26.3701 2.24425 26.3652C1.65585 26.3654 1.06795 26.331 0.483582 26.2623C3.85525 28.4301 7.78012 29.5807 11.7886 29.5762C25.3577 29.5762 32.7757 18.3377 32.7757 8.59071C32.7757 8.27404 32.7678 7.95421 32.7535 7.63754C34.1964 6.59408 35.4419 5.30196 36.4316 3.82171L36.4347 3.81696Z" fill="black"/>
</svg>
